<?xml version="1.0" encoding="UTF-8" standalone="no"?>
<!-- Created with Inkscape (http://www.inkscape.org/) -->

<svg
   xmlns:dc="http://purl.org/dc/elements/1.1/"
   xmlns:cc="http://creativecommons.org/ns#"
   xmlns:rdf="http://www.w3.org/1999/02/22-rdf-syntax-ns#"
   xmlns:svg="http://www.w3.org/2000/svg"
   xmlns="http://www.w3.org/2000/svg"
   xmlns:sodipodi="http://sodipodi.sourceforge.net/DTD/sodipodi-0.dtd"
   xmlns:inkscape="http://www.inkscape.org/namespaces/inkscape"
   width="210mm"
   height="297mm"
   id="svg7292"
   version="1.1"
   inkscape:version="0.48.1 "
   sodipodi:docname="LOGO_imes_Schrift_links.svg">
  <defs
     id="defs3" />
  <sodipodi:namedview
     inkscape:document-units="mm"
     id="base"
     pagecolor="#ffffff"
     bordercolor="#666666"
     borderopacity="1.0"
     inkscape:pageopacity="0.0"
     inkscape:pageshadow="2"
     inkscape:zoom="0.96237314"
     inkscape:cx="357.07483"
     inkscape:cy="967.09583"
     inkscape:current-layer="layer1"
     showgrid="false"
     inkscape:window-width="1920"
     inkscape:window-height="1018"
     inkscape:window-x="-8"
     inkscape:window-y="-8"
     inkscape:window-maximized="1"
     showguides="true" />
  <metadata
     id="metadata4">
    <rdf:RDF>
      <cc:Work
         rdf:about="">
        <dc:format>image/svg+xml</dc:format>
        <dc:type
           rdf:resource="http://purl.org/dc/dcmitype/StillImage" />
        <dc:title />
      </cc:Work>
    </rdf:RDF>
  </metadata>
  <g
     inkscape:label="Layer 1"
     inkscape:groupmode="layer"
     id="layer1">
    <g
       id="g7972"
       transform="matrix(0.48722611,0,0,0.48722611,263.26482,216.58556)">
      <text
         style="font-size:15.0000124px"
         y="-132.34541"
         x="-113.29296"
         id="text7332">
        <tspan
           id="tspan7334"
           sodipodi:role="line"
           y="-132.34541"
           x="-113.29296 -107.46555 -90.388321 -79.970985"
           style="font-size:22.49964333px;font-variant:normal;font-weight:800;writing-mode:lr-tb;fill:#ffffff;fill-opacity:1;fill-rule:nonzero;stroke:none;font-family:Agfa Rotis Sans Serif Ex Bold;-inkscape-font-specification:AgfaRotisSansSerifExtraBold-ExtraBold">imes</tspan>
      </text>
      <path
         inkscape:connector-curvature="0"
         d="m 613.39588,-337.95183 177.165,0 0,124.0146 -53.151,0 0,53.1492 -124.014,0 0,-177.1638"
         style="fill:#00509b;fill-opacity:1;fill-rule:evenodd;stroke:none"
         id="path7348" />
      <path
         inkscape:connector-curvature="0"
         d="m 790.56088,-213.93723 124.014,0 0,177.165333 -177.165,0 0,-124.016133 53.151,0 0,-53.1492 z m 3.999,165.836817 0,-29.74452 6.927,0 0,29.74452 -6.927,0 z m 0,-36.25422 0,-6.8625 6.927,0 0,6.8625 -6.927,0 z m 15.84,36.25422 0,-29.74452 6.96,0 0,4.5714 0.123,0 c 1.5,-3.4992 4.104,-5.2488 7.812,-5.2488 4.146,0 6.633,1.9689 7.467,5.9157 l 0.156,0 c 0.552,-1.4379 1.458,-2.7081 2.718,-3.8121 1.647,-1.4052 3.531,-2.1036 5.646,-2.1036 2.334,0 4.227,0.7818 5.676,2.3544 1.581,1.7286 2.373,4.2069 2.373,7.4355 l 0,20.63202 -6.927,0 0,-16.99806 c 0,-2.49846 -0.051,-3.98796 -0.153,-4.45656 -0.366,-1.6455 -1.335,-2.4681 -2.895,-2.4681 -1.857,0 -3.354,1.2492 -4.512,3.7488 -0.999,2.1774 -1.497,4.61376 -1.497,7.30086 l 0,12.87306 -6.927,0 0,-16.99806 c 0,-2.49846 -0.063,-3.98796 -0.189,-4.45656 -0.342,-1.6455 -1.311,-2.4681 -2.895,-2.4681 -1.833,0 -3.321,1.2492 -4.476,3.7488 -1.002,2.1774 -1.5,4.61376 -1.5,7.30086 l 0,12.87306 -6.96,0 z m 68.925,-5.3121 0,4.82226 c -2.436,0.79101 -5.217,1.1871 -8.331,1.1871 -4.791,0 -8.487,-1.48944 -11.082,-4.46835 -2.592,-2.97774 -3.894,-7.20702 -3.894,-12.67383 0,-9.321 4.248,-13.977 12.759,-13.977 3.675,0 6.507,1.0935 8.475,3.2919 1.875,2.1129 2.814,5.0403 2.814,8.7585 l 0,1.67583 -17.613,0 c 0,2.77029 0.813,5.3742 2.439,7.8117 2.124,3.13476 5.028,4.69689 8.727,4.69689 1.656,0 3.552,-0.375 5.706,-1.125 z m -16.683,-15.56022 10.863,0 c 0,-1.2597 -0.333,-2.3532 -1.011,-3.2589 -0.915,-1.2399 -2.322,-1.8645 -4.239,-1.8645 -1.791,0 -3.207,0.6351 -4.239,1.896 -0.801,0.9471 -1.26,2.0298 -1.374,3.2274 z m 39.483,-8.4561 0,5.8944 c -2.667,-1.3428 -4.875,-2.0097 -6.624,-2.0097 -1.158,0 -2.199,0.2391 -3.114,0.729 -1.011,0.5319 -1.521,1.2081 -1.521,2.0517 0,0.9891 1.125,2.1867 3.384,3.5931 3.417,2.09298 5.52,3.48867 6.312,4.17657 2.259,1.97811 3.384,4.19649 3.384,6.65508 0,2.94726 -1.062,5.19609 -3.177,6.73827 -1.968,1.46835 -4.665,2.19726 -8.082,2.19726 -2.76,0 -5.385,-0.39609 -7.863,-1.1871 l 0,-6.00939 c 2.76,1.19766 5.28,1.79181 7.563,1.79181 3.414,0 5.124,-0.89649 5.124,-2.6871 0,-0.8754 -1.107,-2.04141 -3.324,-3.50979 -3.291,-2.15625 -5.352,-3.60351 -6.165,-4.35351 -2.22,-2.02029 -3.321,-4.1661 -3.321,-6.4371 0,-2.7492 0.969,-4.8843 2.895,-6.4254 1.935,-1.5306 4.53,-2.3016 7.779,-2.3016 1.635,0 3.876,0.3645 6.75,1.0935"
         style="fill:#ee6e21;fill-opacity:1;fill-rule:evenodd;stroke:none"
         id="path7350" />
      <text
         sodipodi:linespacing="125%"
         id="text7365"
         y="-239.48369"
         x="582.98273"
         style="font-size:12px;font-style:normal;font-variant:normal;font-weight:normal;font-stretch:normal;line-height:125%;letter-spacing:0px;word-spacing:0px;fill:#231f20;fill-opacity:1;stroke:none;font-family:Times New Roman;-inkscape-font-specification:Times New Roman"
         xml:space="preserve"><tspan
           style="font-size:105px;font-style:normal;font-variant:normal;font-weight:bold;font-stretch:normal;text-align:end;line-height:108.00000428999999000%;text-anchor:end;fill:#000000;fill-opacity:1;font-family:Agfa Rotis Sans Serif;-inkscape-font-specification:Agfa Rotis Sans Serif Bold"
           y="-239.48369"
           x="582.98273"
           id="tspan7367"
           sodipodi:role="line">Institut für</tspan><tspan
           style="font-size:105px;font-style:normal;font-variant:normal;font-weight:bold;font-stretch:normal;text-align:end;line-height:108.00000428999999000%;text-anchor:end;fill:#000000;fill-opacity:1;font-family:Agfa Rotis Sans Serif;-inkscape-font-specification:Agfa Rotis Sans Serif Bold"
           id="tspan7369"
           y="-126.08369"
           x="582.98273"
           sodipodi:role="line">Mechatronische Systeme</tspan></text>
      <text
         sodipodi:linespacing="109%"
         id="text7365-5"
         y="-48.796741"
         x="582.10089"
         style="font-size:12px;font-style:normal;font-variant:normal;font-weight:normal;font-stretch:normal;line-height:109.00000334%;letter-spacing:0px;word-spacing:0px;fill:#231f20;fill-opacity:1;stroke:none;font-family:Times New Roman;-inkscape-font-specification:Times New Roman"
         xml:space="preserve"><tspan
           style="font-size:61.57305485999999900px;font-style:normal;font-variant:normal;font-weight:bold;font-stretch:normal;text-align:end;line-height:108.00000428999999000%;text-anchor:end;fill:#000000;fill-opacity:1;font-family:Agfa Rotis Sans Serif;-inkscape-font-specification:Agfa Rotis Sans Serif Bold"
           id="tspan7369-7"
           y="-48.796741"
           x="582.10089"
           sodipodi:role="line">Leibniz Universität Hannover</tspan></text>
    </g>
  </g>
</svg>
