<?xml version="1.0" encoding="UTF-8" standalone="no"?>
<!-- Creator: CorelDRAW 2020 (64-Bit) -->

<svg
   xml:space="preserve"
   width="22.5mm"
   height="22.500101mm"
   version="1.1"
   shape-rendering="geometricPrecision"
   text-rendering="geometricPrecision"
   image-rendering="optimizeQuality"
   fill-rule="evenodd"
   clip-rule="evenodd"
   viewBox="0 0 2250 2250.0101"
   id="svg257"
   sodipodi:docname="LOGO_serielle_Kinematik.svg"
   inkscape:version="1.1 (c68e22c387, 2021-05-23)"
   xmlns:inkscape="http://www.inkscape.org/namespaces/inkscape"
   xmlns:sodipodi="http://sodipodi.sourceforge.net/DTD/sodipodi-0.dtd"
   xmlns="http://www.w3.org/2000/svg"
   xmlns:svg="http://www.w3.org/2000/svg"><defs
   id="defs261" /><sodipodi:namedview
   id="namedview259"
   pagecolor="#ffffff"
   bordercolor="#666666"
   borderopacity="1.0"
   inkscape:pageshadow="2"
   inkscape:pageopacity="0.0"
   inkscape:pagecheckerboard="0"
   inkscape:document-units="mm"
   showgrid="false"
   fit-margin-top="0"
   fit-margin-left="0"
   fit-margin-right="0"
   fit-margin-bottom="0"
   inkscape:zoom="0.53975"
   inkscape:cx="36.127837"
   inkscape:cy="-742.93654"
   inkscape:window-width="1280"
   inkscape:window-height="738"
   inkscape:window-x="-6"
   inkscape:window-y="-6"
   inkscape:window-maximized="1"
   inkscape:current-layer="Ebene_x0020_1" />
 <g
   id="Ebene_x0020_1"
   inkscape:label="Ebene 1"
   inkscape:groupmode="layer"
   transform="translate(-6500,-800)">
  <metadata
   id="CorelCorpID_0Corel-Layer" />
  <polygon
   fill="#00509b"
   fill-rule="nonzero"
   points="8750,800 6500,800 6500,3050.01 8750,3050.01 "
   id="polygon198" />
  <rect
   fill="#ffffff"
   x="6550"
   y="850"
   width="2150"
   height="2150"
   id="rect200" />
  <path
   fill="#00509b"
   fill-rule="nonzero"
   d="m 7339.52,1688.21 c 24.8,282.36 53.06,560.74 37.19,902.5 l -502.01,-2.35 c -7.86,-320.82 -22.19,-545.97 37.46,-899.45 z"
   id="path202" />
  <path
   fill="none"
   fill-rule="nonzero"
   stroke="#ffffff"
   stroke-width="26.34"
   stroke-linecap="round"
   stroke-miterlimit="4"
   d="m 7339.49,1688.2 c 24.83,282.37 53.07,560.75 37.22,902.52 l -502.01,-2.36 c -7.87,-320.82 -22.21,-545.96 37.47,-899.45 z m 0,0 z"
   id="path204" />
  <path
   fill="none"
   fill-rule="nonzero"
   stroke="#00509b"
   stroke-width="18.89"
   stroke-miterlimit="4"
   d="m 7965.24,1666.58 c -2,328.95 -205.56,66.73 -489.57,210.02 -284.03,143.33 -156.84,-22.43 -156.84,-22.43"
   id="path206" />
  <polygon
   fill="#00509b"
   fill-rule="nonzero"
   points="7546.64,1409.3 7783.78,1311.62 7911.41,1623.47 7674.24,1721.16 "
   id="polygon208" />
  <path
   fill="none"
   fill-rule="nonzero"
   stroke="#fefefe"
   stroke-width="26.34"
   stroke-linecap="round"
   stroke-miterlimit="4"
   d="m 7926.83,1617.08 -237.14,97.71 -127.6,-311.85 237.15,-97.69 z m 0,0 z"
   id="path210" />
  <polygon
   fill="#00509b"
   fill-rule="nonzero"
   points="7863.43,1684.22 7701.12,1302.23 7864.28,1232.38 8026.45,1614.37 "
   id="polygon212" />
  <polygon
   fill="#ffffff"
   fill-rule="nonzero"
   points="7879.03,1645.38 7739.82,1317.79 7767.12,1306.22 7906.15,1633.67 "
   id="polygon214" />
  <polygon
   fill="#00509b"
   fill-rule="nonzero"
   points="7965,1671.13 7782.12,1241.59 7945.42,1171.88 8128.3,1601.53 "
   id="polygon216" />
  <path
   fill="#00509b"
   fill-rule="nonzero"
   d="m 7949.02,1633.91 c 13.37,-3.14 26.74,5.12 29.91,18.49 3.04,13.37 -5.11,26.74 -18.48,29.92 -13.37,3.13 -26.74,-5.12 -29.78,-18.49 -3.14,-13.37 4.98,-26.74 18.35,-29.92 z"
   id="path218" />
  <path
   fill="none"
   fill-rule="nonzero"
   stroke="#ffffff"
   stroke-width="5.36"
   stroke-linecap="round"
   stroke-linejoin="round"
   stroke-miterlimit="4"
   d="m 7949.03,1633.93 c 13.35,-3.18 26.7,5.09 29.88,18.45 3.01,13.4 -5.11,26.74 -18.46,29.92 -13.35,3.17 -26.73,-5.09 -29.76,-18.45 -3.19,-13.37 4.96,-26.74 18.34,-29.92 z m 0,0 z"
   id="path220" />
  <path
   fill="#ffffff"
   d="m 8296.01,1148.32 20.39,33.61 c -272.84,121.82 -187.82,82.13 -307.45,134.1 l -143.72,-68.65 c 0,0 148.27,-44.35 207.26,-40.64 z"
   id="path222" />
  <path
   fill="#00509b"
   stroke="#00509b"
   stroke-width="14.83"
   stroke-linecap="round"
   stroke-linejoin="round"
   stroke-miterlimit="4"
   d="m 8296.02,1148.33 20.39,33.61 c -272.89,121.83 -187.82,82.14 -307.47,134.1 l -143.7,-68.64 c 0,0 148.28,-44.36 207.26,-40.65 z m 0,0 z"
   id="path224" />
  <path
   fill="#00509b"
   fill-rule="nonzero"
   d="m 8051,1240.5 c 8.68,-3.85 18.88,0.28 22.72,9.38 l 14.47,33.34 c 3.88,8.96 0,19.29 -8.82,23 -8.68,3.88 -18.88,-0.25 -22.72,-9.21 l -14.46,-33.51 c -3.89,-8.93 0,-19.16 8.81,-23 z"
   id="path226" />
  <path
   fill="#00509b"
   fill-rule="nonzero"
   d="m 8144.56,1200.24 c 8.68,-3.84 18.87,0.29 22.72,9.39 l 14.5,33.34 c 3.84,8.96 0,19.29 -8.82,23.03 -8.68,3.85 -18.91,-0.28 -22.75,-9.24 l -14.47,-33.34 c -3.84,-9.1 0,-19.3 8.82,-23.18 z"
   id="path228" />
  <path
   fill="#00509b"
   fill-rule="nonzero"
   d="m 8243.37,1158.65 c 8.68,-3.88 18.88,0.28 22.72,9.21 l 14.47,33.37 c 3.88,8.96 0,19.3 -8.82,23.14 -8.68,3.85 -18.88,-0.42 -22.72,-9.38 l -14.47,-33.34 c -3.88,-8.96 0,-19.29 8.82,-23 z"
   id="path230" />
  <path
   fill="#ffffff"
   d="m 8386.14,1375.82 -10.62,-37.75 c -274.91,116.99 -187.96,81.71 -307.44,133.95 L 8020,1624.28 c 0,0 133.52,-78.56 170.99,-124.28 z"
   id="path232" />
  <path
   fill="#00509b"
   stroke="#00509b"
   stroke-width="14.83"
   stroke-linecap="round"
   stroke-linejoin="round"
   stroke-miterlimit="4"
   d="m 8386.13,1375.84 -10.6,-37.75 c -274.93,116.99 -187.96,81.72 -307.47,133.96 L 8020,1624.31 c 0,0 133.48,-78.57 170.98,-124.31 z m 0,0 z"
   id="path234" />
  <path
   fill="#00509b"
   fill-rule="nonzero"
   d="m 8151.72,1492.7 c 8.82,-3.74 12.67,-14.08 8.82,-23.04 l -14.46,-33.34 c -3.85,-8.96 -14.08,-13.23 -22.76,-9.38 -8.82,3.88 -12.66,14.07 -8.82,23.14 l 14.5,33.37 c 3.85,8.96 14.04,13.09 22.72,9.25 z"
   id="path236" />
  <path
   fill="#00509b"
   fill-rule="nonzero"
   d="m 8244.89,1451.6 c 8.82,-3.85 12.67,-14.18 8.82,-23.14 l -14.46,-33.34 c -3.88,-8.96 -14.08,-13.09 -22.76,-9.39 -8.82,3.89 -12.66,14.22 -8.82,23.18 l 14.47,33.34 c 3.88,8.96 14.07,13.09 22.75,9.35 z"
   id="path238" />
  <path
   fill="#00509b"
   fill-rule="nonzero"
   d="m 8342.72,1407.5 c 8.67,-3.84 12.66,-14.04 8.67,-23.14 l -14.32,-33.34 c -3.98,-8.96 -14.04,-13.09 -22.86,-9.24 -8.71,3.74 -12.7,14.07 -8.82,23.04 l 14.47,33.33 c 3.84,9.1 14.04,13.23 22.86,9.35 z"
   id="path240" />
  <polygon
   fill="#ffffff"
   fill-rule="nonzero"
   points="8042.57,1571.23 7903.54,1243.67 7930.67,1232.1 8069.74,1559.51 "
   id="polygon242" />
  <path
   fill="#ffffff"
   d="m 8339.26,1383.69 -2.05,-6.63 c -275.06,117.01 -106.92,46.32 -226.41,98.53 l 21.48,50.87 c 0,0 17.64,-14.22 47.42,-38.46 64.34,-41.76 159.56,-104.31 159.56,-104.31 z"
   id="path244" />
  <path
   fill="#ffffff"
   d="m 8261.01,1180.42 3.28,6.21 c -272.83,121.81 -106.78,46.7 -226.27,98.81 l -22.29,-50.45 c 0,0 22.29,-3.31 60.22,-8.68 74.54,-18.76 185.06,-45.89 185.06,-45.89 z"
   id="path246" />
  <path
   fill="#00509b"
   fill-rule="nonzero"
   d="m 7750.01,1733.57 c -190.42,119.74 -378.24,174.17 -566.91,229.56 l -155.15,-385.55 c 183.26,-115.75 371.51,-198.16 566.91,-229.73 z"
   id="path248" />
  <path
   fill="none"
   fill-rule="nonzero"
   stroke="#ffffff"
   stroke-width="26.34"
   stroke-linecap="round"
   stroke-miterlimit="4"
   d="m 7750.03,1733.59 c -190.46,119.74 -378.27,174.17 -566.92,229.55 l -155.16,-385.56 c 183.28,-115.75 371.52,-198.14 566.91,-229.73 z m 0,0 z"
   id="path250" />
  <path
   fill="#00509b"
   fill-rule="nonzero"
   d="m 6889.73,1698.15 c 38.42,-131.05 175.4,-206.16 306.04,-167.56 130.66,38.55 205.49,176.1 167.04,307.3 -38.46,131.05 -175.44,206.13 -306.07,167.57 -130.65,-38.6 -205.46,-176.14 -167.01,-307.31 z"
   id="path252" />
  <path
   fill="none"
   fill-rule="nonzero"
   stroke="#fefefe"
   stroke-width="26.34"
   stroke-linecap="round"
   stroke-miterlimit="4"
   d="m 6891.58,1699.62 c 38.45,-131.09 175.42,-206.19 306.08,-167.59 130.63,38.56 205.46,176.11 166.99,307.28 -38.43,131.06 -175.41,206.19 -306.03,167.57 -130.66,-38.57 -205.51,-176.09 -167.04,-307.26 z m 0,0 z"
   id="path254" />
 </g>
</svg>
