<?xml version="1.0" encoding="UTF-8" standalone="no"?>
<!-- Creator: CorelDRAW 2020 (64-Bit) -->

<svg
   xml:space="preserve"
   width="22.5mm"
   height="22.500101mm"
   version="1.1"
   shape-rendering="geometricPrecision"
   text-rendering="geometricPrecision"
   image-rendering="optimizeQuality"
   fill-rule="evenodd"
   clip-rule="evenodd"
   viewBox="0 0 2250 2250.0101"
   id="svg353"
   sodipodi:docname="LOGO_inverses_Pendel.svg"
   inkscape:version="1.1 (c68e22c387, 2021-05-23)"
   xmlns:inkscape="http://www.inkscape.org/namespaces/inkscape"
   xmlns:sodipodi="http://sodipodi.sourceforge.net/DTD/sodipodi-0.dtd"
   xmlns="http://www.w3.org/2000/svg"
   xmlns:svg="http://www.w3.org/2000/svg"><defs
   id="defs357" /><sodipodi:namedview
   id="namedview355"
   pagecolor="#ffffff"
   bordercolor="#666666"
   borderopacity="1.0"
   inkscape:pageshadow="2"
   inkscape:pageopacity="0.0"
   inkscape:pagecheckerboard="0"
   inkscape:document-units="mm"
   showgrid="false"
   fit-margin-top="0"
   fit-margin-left="0"
   fit-margin-right="0"
   fit-margin-bottom="0"
   inkscape:zoom="0.53975"
   inkscape:cx="123.20519"
   inkscape:cy="442.79759"
   inkscape:window-width="1280"
   inkscape:window-height="738"
   inkscape:window-x="-6"
   inkscape:window-y="-6"
   inkscape:window-maximized="1"
   inkscape:current-layer="Ebene_x0020_1" />
 <g
   id="Ebene_x0020_1"
   inkscape:label="Ebene 1"
   inkscape:groupmode="layer"
   transform="translate(-4200,-800)">
  <metadata
   id="CorelCorpID_0Corel-Layer" />
  <polygon
   fill="#00509b"
   fill-rule="nonzero"
   points="6450,800 4200,800 4200,3050.01 6450,3050.01 "
   id="polygon298" />
  <rect
   fill="#ffffff"
   x="4250"
   y="850"
   width="2150"
   height="2150"
   id="rect300" />
  <g
   id="_2283359614736">
   <circle
   id="path4180"
   fill="#00509b"
   stroke="#fefefe"
   stroke-width="25"
   stroke-linejoin="round"
   stroke-miterlimit="22.9256"
   cx="4951.2002"
   cy="2756.01"
   r="208.95" />
   <circle
   id="path4180-2"
   fill="#00509b"
   stroke="#fefefe"
   stroke-width="25"
   stroke-linejoin="round"
   stroke-miterlimit="22.9256"
   cx="5741.2798"
   cy="2756.01"
   r="208.95" />
   <rect
   id="rect4178"
   fill="#00509b"
   stroke="#fefefe"
   stroke-width="25"
   stroke-linejoin="round"
   stroke-miterlimit="22.9256"
   x="4680.2202"
   y="2421.95"
   width="1332.04"
   height="404.84" />
   <rect
   fill="#00509b"
   stroke="#fefefe"
   stroke-width="25"
   stroke-miterlimit="22.9256"
   transform="matrix(0.568474,0.765143,-0.457411,0.339326,6026.18,1857.58)"
   width="235"
   height="1896.0601"
   rx="117.5"
   ry="117.5"
   id="rect305"
   x="0"
   y="0" />
   <rect
   fill="#00509b"
   stroke="#fefefe"
   stroke-width="25"
   stroke-miterlimit="22.9256"
   transform="matrix(0.91368,0.271649,-0.162704,0.545798,6170.84,1044.03)"
   width="235"
   height="1896.0601"
   rx="117.5"
   ry="117.5"
   id="rect307"
   x="0"
   y="0" />
  </g>
  <rect
   fill="#00509b"
   x="5373.0801"
   y="992.44"
   width="399.04999"
   height="332.54999"
   id="rect310" />
  <g
   id="g314">
   <path
   fill="#00509b"
   fill-rule="nonzero"
   d="m 4513.56,1183.72 h -211.22 v -50 h 211.22 z m -9.24,-103.46 133.85,80.77 -133.85,80.77 z"
   id="path312" />
  </g>
  <rect
   fill="#00509b"
   x="4638.1699"
   y="992.44"
   width="399.04999"
   height="332.54999"
   id="rect316" />
  <rect
   fill="#00509b"
   x="5005.6201"
   y="1524.23"
   width="399.06"
   height="332.54999"
   id="rect318" />
  <g
   id="g322">
   <path
   fill="#00509b"
   fill-rule="nonzero"
   d="m 5928.98,1183.73 h -211.23 v -50 h 211.23 z m -9.24,-103.46 133.85,80.77 -133.85,80.77 z"
   id="path320" />
  </g>
  <g
   id="g328">
   <g
   id="g326">
    <path
   fill="#00509b"
   fill-rule="nonzero"
   d="m 5248.47,1183.73 -211.24,-0.01 v -50 l 211.24,0.01 z m -9.23,-103.47 133.84,80.78 -133.85,80.76 z"
   id="path324" />
   </g>
  </g>
  <g
   id="g332">
   <polyline
   fill="none"
   stroke="#00509b"
   stroke-width="50"
   stroke-miterlimit="22.9256"
   points="5205.15,1856.78 5205.15,2018.13 4424.43,2018.13 4424.43,1158.72 "
   id="polyline330" />
  </g>
  <rect
   fill="#ffffff"
   x="4688.0498"
   y="1034.01"
   width="299.29001"
   height="249.41"
   id="rect334" />
  <rect
   fill="#ffffff"
   x="5418.46"
   y="1034.01"
   width="299.29001"
   height="249.41"
   id="rect336" />
  <rect
   fill="#ffffff"
   x="5055.5098"
   y="1565.8"
   width="299.29001"
   height="249.41"
   id="rect338" />
  <line
   fill="none"
   stroke="#00509b"
   stroke-width="50"
   stroke-linecap="square"
   stroke-miterlimit="22.9256"
   x1="4837.7002"
   y1="1325"
   x2="4837.71"
   y2="1690.52"
   id="line340" />
  <g
   id="g344">
   <path
   fill="#00509b"
   fill-rule="nonzero"
   d="m 4881.02,1715.51 h -43.31 v -50 h 43.31 z m -9.24,-103.46 133.85,80.77 -133.85,80.77 z"
   id="path342" />
  </g>
  <line
   fill="none"
   stroke="#00509b"
   stroke-width="50"
   stroke-linecap="square"
   stroke-miterlimit="22.9256"
   x1="5572.6201"
   y1="1325"
   x2="5572.6099"
   y2="1690.51"
   id="line346" />
  <g
   id="g350">
   <path
   fill="#00509b"
   fill-rule="nonzero"
   d="m 5529.31,1665.51 h 43.3 v 50 h -43.3 z m 9.24,103.46 -133.85,-80.77 133.85,-80.77 z"
   id="path348" />
  </g>
 </g>
</svg>
