<?xml version="1.0" encoding="UTF-8" standalone="no"?>
<!-- Creator: CorelDRAW 2020 (64-Bit) -->

<svg
   xml:space="preserve"
   width="22.5mm"
   height="22.500101mm"
   version="1.1"
   shape-rendering="geometricPrecision"
   text-rendering="geometricPrecision"
   image-rendering="optimizeQuality"
   fill-rule="evenodd"
   clip-rule="evenodd"
   viewBox="0 0 2250 2250.0101"
   id="svg134"
   sodipodi:docname="LOGO_parallel_Kinematik.svg"
   inkscape:version="1.1 (c68e22c387, 2021-05-23)"
   xmlns:inkscape="http://www.inkscape.org/namespaces/inkscape"
   xmlns:sodipodi="http://sodipodi.sourceforge.net/DTD/sodipodi-0.dtd"
   xmlns="http://www.w3.org/2000/svg"
   xmlns:svg="http://www.w3.org/2000/svg"><defs
   id="defs138" /><sodipodi:namedview
   id="namedview136"
   pagecolor="#ffffff"
   bordercolor="#666666"
   borderopacity="1.0"
   inkscape:pageshadow="2"
   inkscape:pageopacity="0.0"
   inkscape:pagecheckerboard="0"
   inkscape:document-units="mm"
   showgrid="false"
   fit-margin-top="0"
   fit-margin-left="0"
   fit-margin-right="0"
   fit-margin-bottom="0"
   inkscape:zoom="0.53975"
   inkscape:cx="123.20519"
   inkscape:cy="-3410.8384"
   inkscape:window-width="1280"
   inkscape:window-height="738"
   inkscape:window-x="-6"
   inkscape:window-y="-6"
   inkscape:window-maximized="1"
   inkscape:current-layer="Ebene_x0020_1" />
 <g
   id="Ebene_x0020_1"
   inkscape:label="Ebene 1"
   inkscape:groupmode="layer"
   transform="translate(-4200,-800)">
  <metadata
   id="CorelCorpID_0Corel-Layer" />
  <polygon
   fill="#00509b"
   fill-rule="nonzero"
   points="6450,800 4200,800 4200,3050.01 6450,3050.01 "
   id="polygon30" />
  <rect
   fill="#ffffff"
   x="4250"
   y="850"
   width="2150"
   height="2150"
   id="rect32" />
  <g
   id="_2811094372912">
   <polygon
   fill="#00509b"
   points="5532.72,1977.55 5532.72,1989.47 5532.72,2013.31 5532.72,2013.31 5485.03,2013.31 5473.11,2013.31 5473.11,1989.47 5485.03,1977.55 "
   id="polygon34" />
   <polyline
   fill="none"
   stroke="#ffffff"
   stroke-width="26.44"
   stroke-miterlimit="22.9256"
   points="5473.11,1989.47 5485.03,1977.55 5532.72,1977.55 5532.72,1989.47 5532.72,2013.31 5532.72,2013.31 5485.03,2013.31 5473.11,2013.31 5473.11,1989.47 "
   id="polyline36" />
   <polygon
   fill="#00509b"
   points="5604.25,2609.42 5604.25,2609.42 5604.25,2597.5 5604.25,2573.65 5723.48,2549.81 5830.78,2549.81 5950,2573.65 5950,2597.5 5950,2609.42 5950,2609.42 5950,2633.26 5604.25,2633.26 "
   id="polygon38" />
   <polyline
   fill="none"
   stroke="#ffffff"
   stroke-width="26.44"
   stroke-miterlimit="22.9256"
   points="5950,2633.26 5604.25,2633.26 5604.25,2609.42 5604.25,2609.42 5604.25,2597.5 5604.25,2573.65 5723.48,2549.81 5830.78,2549.81 5950,2573.65 5950,2597.5 5950,2609.42 5950,2609.42 5950,2633.26 5950,2633.26 "
   id="polyline40" />
   <polygon
   fill="#00509b"
   points="4626.63,2609.42 4626.63,2609.42 4626.63,2597.5 4626.63,2573.65 4745.85,2549.81 4865.07,2549.81 4984.3,2573.65 4984.3,2597.5 4984.3,2609.42 4984.3,2609.42 4984.3,2633.26 4626.63,2633.26 "
   id="polygon42" />
   <polyline
   fill="none"
   stroke="#ffffff"
   stroke-width="26.44"
   stroke-miterlimit="22.9256"
   points="4984.3,2633.26 4626.63,2633.26 4626.63,2609.42 4626.63,2609.42 4626.63,2597.5 4626.63,2573.65 4745.85,2549.81 4865.07,2549.81 4984.3,2573.65 4984.3,2597.5 4984.3,2609.42 4984.3,2609.42 4984.3,2633.26 4984.3,2633.26 "
   id="polyline44" />
   <polygon
   fill="#00509b"
   points="4769.7,2144.46 5795.01,2144.46 5795.01,2263.68 4769.7,2263.68 "
   id="polygon46" />
   <polyline
   fill="none"
   stroke="#ffffff"
   stroke-width="26.44"
   stroke-miterlimit="22.9256"
   points="5795.01,2263.68 4769.7,2263.68 4769.7,2144.46 5795.01,2144.46 5795.01,2263.68 5795.01,2263.68 "
   id="polyline48" />
   <polygon
   fill="#00509b"
   points="5818.85,1286.06 4733.93,1286.06 4757.78,1011.85 5818.85,999.93 "
   id="polygon50" />
   <polygon
   fill="none"
   stroke="#ffffff"
   stroke-width="26.44"
   stroke-miterlimit="22.9256"
   points="5818.85,1286.06 4733.93,1286.06 4757.78,1011.85 5818.85,999.93 "
   id="polygon52" />
   <polygon
   fill="#00509b"
   points="5592.33,2907.48 5592.33,2907.48 5592.33,2895.55 5592.33,2871.71 5711.55,2847.87 5818.85,2847.87 5938.07,2871.71 5938.07,2895.55 5938.07,2907.48 5938.07,2907.48 5938.07,2931.32 5592.33,2931.32 "
   id="polygon54" />
   <polyline
   fill="none"
   stroke="#ffffff"
   stroke-width="26.44"
   stroke-miterlimit="22.9256"
   points="5938.07,2931.32 5592.33,2931.32 5592.33,2907.48 5592.33,2907.48 5592.33,2895.55 5592.33,2871.71 5711.55,2847.87 5818.85,2847.87 5938.07,2871.71 5938.07,2895.55 5938.07,2907.48 5938.07,2907.48 5938.07,2931.32 5938.07,2931.32 "
   id="polyline56" />
   <polygon
   fill="#00509b"
   points="5496.95,1941.78 5544.64,1953.7 5556.56,1965.62 5544.64,1977.55 5496.95,1989.47 5461.19,1977.55 5437.34,1965.62 5461.19,1953.7 "
   id="polygon58" />
   <polyline
   fill="none"
   stroke="#ffffff"
   stroke-width="26.44"
   stroke-miterlimit="22.9256"
   points="5437.34,1965.62 5461.19,1953.7 5496.95,1941.78 5544.64,1953.7 5556.56,1965.62 5544.64,1977.55 5496.95,1989.47 5461.19,1977.55 5437.34,1965.62 "
   id="polyline60" />
   <polygon
   fill="#00509b"
   points="4912.77,1441.05 4972.38,1333.75 5043.91,1345.67 4972.38,1464.89 "
   id="polygon62" />
   <polygon
   fill="none"
   stroke="#ffffff"
   stroke-width="26.44"
   stroke-miterlimit="22.9256"
   points="4912.77,1441.05 4972.38,1333.75 5043.91,1345.67 4972.38,1464.89 "
   id="polygon64" />
   <polygon
   fill="#00509b"
   points="5640.02,1309.9 5735.39,1381.44 5711.55,1452.97 5592.33,1369.51 "
   id="polygon66" />
   <polygon
   fill="none"
   stroke="#ffffff"
   stroke-width="26.44"
   stroke-miterlimit="22.9256"
   points="5640.02,1309.9 5735.39,1381.44 5711.55,1452.97 5592.33,1369.51 "
   id="polygon68" />
   <polygon
   fill="#00509b"
   points="5699.63,2847.87 5699.63,1345.67 5818.85,1357.59 5818.85,2847.87 "
   id="polygon70" />
   <polyline
   fill="none"
   stroke="#ffffff"
   stroke-width="26.44"
   stroke-miterlimit="22.9256"
   points="5818.85,1357.59 5818.85,2847.87 5699.63,2847.87 5699.63,1345.67 5818.85,1357.59 5818.85,1357.59 "
   id="polyline72" />
   <polygon
   fill="#00509b"
   points="4924.69,1345.67 4829.31,1429.12 4769.7,1393.36 4877,1297.98 "
   id="polygon74" />
   <polygon
   fill="none"
   stroke="#ffffff"
   stroke-width="26.44"
   stroke-miterlimit="22.9256"
   points="4924.69,1345.67 4829.31,1429.12 4769.7,1393.36 4877,1297.98 "
   id="polygon76" />
   <polygon
   fill="#00509b"
   points="4733.93,2859.79 4733.93,1357.59 4853.16,1369.51 4853.16,2859.79 "
   id="polygon78" />
   <polyline
   fill="none"
   stroke="#ffffff"
   stroke-width="26.44"
   stroke-miterlimit="22.9256"
   points="4853.16,1369.51 4853.16,2859.79 4733.93,2859.79 4733.93,1357.59 4853.16,1369.51 4853.16,1369.51 "
   id="polyline80" />
   <polygon
   fill="#00509b"
   points="5210.82,1369.51 5341.96,1297.98 5389.65,1357.59 5234.66,1429.12 "
   id="polygon82" />
   <polygon
   fill="none"
   stroke="#ffffff"
   stroke-width="26.44"
   stroke-miterlimit="22.9256"
   points="5210.82,1369.51 5341.96,1297.98 5389.65,1357.59 5234.66,1429.12 "
   id="polygon84" />
   <polygon
   fill="#00509b"
   points="5818.85,1369.51 4733.93,1369.51 4733.93,1286.06 5818.85,1286.06 "
   id="polygon86" />
   <polyline
   fill="none"
   stroke="#ffffff"
   stroke-width="26.44"
   stroke-miterlimit="22.9256"
   points="4733.93,1286.06 5818.85,1286.06 5818.85,1369.51 4733.93,1369.51 4733.93,1286.06 4733.93,1286.06 "
   id="polyline88" />
   <polygon
   fill="#00509b"
   points="4614.71,2907.48 4614.71,2895.55 4614.71,2895.55 4614.71,2871.71 4733.93,2835.94 4853.16,2835.94 4972.38,2871.71 4972.38,2895.55 4972.38,2895.55 4972.38,2907.48 4972.38,2931.32 4614.71,2931.32 "
   id="polygon90" />
   <polyline
   fill="none"
   stroke="#ffffff"
   stroke-width="26.44"
   stroke-miterlimit="22.9256"
   points="4972.38,2931.32 4614.71,2931.32 4614.71,2907.48 4614.71,2895.55 4614.71,2895.55 4614.71,2871.71 4733.93,2835.94 4853.16,2835.94 4972.38,2871.71 4972.38,2895.55 4972.38,2895.55 4972.38,2907.48 4972.38,2931.32 4972.38,2931.32 "
   id="polyline92" />
   <polygon
   fill="#00509b"
   points="4733.93,2430.59 5818.85,2430.59 5818.85,2549.81 4733.93,2549.81 "
   id="polygon94" />
   <polyline
   fill="none"
   stroke="#ffffff"
   stroke-width="26.44"
   stroke-miterlimit="22.9256"
   points="5818.85,2549.81 4733.93,2549.81 4733.93,2430.59 5818.85,2430.59 5818.85,2549.81 5818.85,2549.81 "
   id="polyline96" />
   <polygon
   fill="#00509b"
   points="5663.87,1214.53 5437.34,1178.76 5365.81,1214.53 5318.12,1202.6 5461.19,1131.07 5723.48,1178.76 "
   id="polygon98" />
   <polygon
   fill="none"
   stroke="#ffffff"
   stroke-width="26.44"
   stroke-miterlimit="22.9256"
   points="5663.87,1214.53 5437.34,1178.76 5365.81,1214.53 5318.12,1202.6 5461.19,1131.07 5723.48,1178.76 "
   id="polygon100" />
   <polygon
   fill="#00509b"
   points="4829.31,1178.76 5031.99,1142.99 4960.46,1107.23 5020.07,1095.3 5127.37,1166.84 4877,1214.53 "
   id="polygon102" />
   <polygon
   fill="none"
   stroke="#ffffff"
   stroke-width="26.44"
   stroke-miterlimit="22.9256"
   points="4829.31,1178.76 5031.99,1142.99 4960.46,1107.23 5020.07,1095.3 5127.37,1166.84 4877,1214.53 "
   id="polygon104" />
   <polygon
   fill="#00509b"
   points="5341.96,1023.77 5341.96,1047.62 5508.87,1059.54 5508.87,1083.38 5306.2,1083.38 5306.2,1023.77 "
   id="polygon106" />
   <polygon
   fill="none"
   stroke="#ffffff"
   stroke-width="26.44"
   stroke-miterlimit="22.9256"
   points="5341.96,1023.77 5341.96,1047.62 5508.87,1059.54 5508.87,1083.38 5306.2,1083.38 5306.2,1023.77 "
   id="polygon108" />
  </g>
  <line
   fill="none"
   stroke="#00509b"
   stroke-width="10"
   stroke-miterlimit="22.9256"
   x1="5637"
   y1="1400.78"
   x2="5485.0298"
   y2="1977.55"
   id="line111" />
  <ellipse
   fill="#00509b"
   stroke="#fefefe"
   stroke-width="7.62"
   stroke-miterlimit="22.9256"
   cx="5490.3398"
   cy="1976.1"
   rx="66.230003"
   ry="25.68"
   id="ellipse113" />
  <line
   fill="none"
   stroke="#00509b"
   stroke-width="10"
   stroke-miterlimit="22.9256"
   x1="5318.9902"
   y1="1390.21"
   x2="5524.6201"
   y2="1960.24"
   id="line115" />
  <line
   fill="none"
   stroke="#00509b"
   stroke-width="10"
   stroke-miterlimit="22.9256"
   x1="5678.2798"
   y1="1429.6801"
   x2="5532.7202"
   y2="1977.55"
   id="line117" />
  <line
   fill="none"
   stroke="#00509b"
   stroke-width="15"
   stroke-miterlimit="22.9256"
   x1="5290.73"
   y1="1403.26"
   x2="5496.96"
   y2="1965.62"
   id="line119" />
  <line
   fill="none"
   stroke="#00509b"
   stroke-width="10"
   stroke-miterlimit="22.9256"
   x1="4963.3901"
   y1="1448.24"
   x2="5499.2402"
   y2="1977.55"
   id="line121" />
  <line
   fill="none"
   stroke="#00509b"
   stroke-width="10"
   stroke-miterlimit="22.9256"
   x1="5247.0898"
   y1="1423.39"
   x2="5458.2402"
   y2="1963.51"
   id="line123" />
  <line
   fill="none"
   stroke="#00509b"
   stroke-width="10"
   stroke-miterlimit="22.9256"
   x1="4923.6299"
   y1="1440.42"
   x2="5449.27"
   y2="1959.66"
   id="line125" />
  <rect
   fill="#00509b"
   x="5452.2598"
   y="1973.86"
   width="80.459999"
   height="37.220001"
   id="rect127" />
  <path
   fill="none"
   stroke="#fefefe"
   stroke-width="30"
   stroke-linecap="round"
   stroke-miterlimit="22.9256"
   d="m 4674.03,2195.2 c 5.02,2.6 9.81,5.63 14.3,9.06 42.6,32.55 50.76,93.47 18.22,136.07 -32.54,42.61 -93.46,50.77 -136.07,18.23 -42.61,-32.54 -50.77,-93.46 -18.22,-136.07"
   id="path129" />
  <line
   fill="none"
   stroke="#fefefe"
   stroke-width="30"
   stroke-linecap="round"
   stroke-miterlimit="22.9256"
   x1="4608.3501"
   y1="2167.28"
   x2="4629.3999"
   y2="2281.4099"
   id="line131" />
 </g>
</svg>
