<?xml version="1.0" encoding="UTF-8"?>
<!DOCTYPE svg PUBLIC "-//W3C//DTD SVG 1.1//EN" "http://www.w3.org/Graphics/SVG/1.1/DTD/svg11.dtd">
<!-- Creator: CorelDRAW 2020 (64-Bit) -->
<svg xmlns="http://www.w3.org/2000/svg" xml:space="preserve" width="430mm" height="100mm" version="1.1" style="shape-rendering:geometricPrecision; text-rendering:geometricPrecision; image-rendering:optimizeQuality; fill-rule:evenodd; clip-rule:evenodd"
viewBox="0 0 43000 10000"
 xmlns:xlink="http://www.w3.org/1999/xlink"
 xmlns:xodm="http://www.corel.com/coreldraw/odm/2003">
 <defs>
  <style type="text/css">
   <![CDATA[
    .fil2 {fill:#00509B}
    .fil3 {fill:#E77B29}
    .fil0 {fill:#FEFEFE;fill-rule:nonzero}
    .fil1 {fill:#2B2A29;fill-rule:nonzero}
   ]]>
  </style>
 </defs>
 <g id="Ebene_x0020_1">
  <metadata id="CorelCorpID_0Corel-Layer"/>
  <path class="fil0" d="M11781.05 6188.89l0 -80.64 87 0 0 80.64 -87 0zm0 374.02l0 -329.57 87 0 0 329.57 -87 0z"/>
  <path id="1" class="fil0" d="M11951.12 6233.34l80.01 0 0 44.98c28.68,-34.6 62.87,-51.96 102.55,-51.96 21.06,0 39.37,4.34 54.82,13.02 15.56,8.68 28.26,21.8 38.1,39.37 14.5,-17.57 30.17,-30.69 46.89,-39.37 16.72,-8.68 34.61,-13.02 53.66,-13.02 24.13,0 44.55,4.87 61.38,14.71 16.72,9.84 29.21,24.24 37.46,43.29 6.04,13.97 9,36.72 9,68.15l0 210.4 -86.99 0 0 -188.07c0,-32.7 -2.97,-53.76 -9,-63.18 -8.04,-12.38 -20.53,-18.63 -37.25,-18.63 -12.17,0 -23.71,3.71 -34.51,11.12 -10.68,7.51 -18.52,18.41 -23.28,32.7 -4.76,14.39 -7.09,37.04 -7.09,68.05l0 158.01 -86.99 0 0 -180.34c0,-31.96 -1.59,-52.71 -4.66,-61.91 -3.07,-9.32 -7.83,-16.3 -14.39,-20.85 -6.46,-4.55 -15.35,-6.78 -26.46,-6.78 -13.44,0 -25.51,3.6 -36.2,10.8 -10.79,7.3 -18.41,17.67 -23.07,31.33 -4.66,13.65 -6.98,36.3 -6.98,67.84l0 159.91 -87 0 0 -329.57z"/>
  <path id="2" class="fil0" d="M12712.59 6458.77l87 14.6c-11.12,31.86 -28.79,56.1 -52.82,72.82 -24.13,16.61 -54.29,24.98 -90.38,24.98 -57.25,0 -99.69,-18.74 -127.1,-56.2 -21.7,-30.06 -32.6,-67.95 -32.6,-113.77 0,-54.61 14.29,-97.48 42.76,-128.38 28.47,-31.01 64.56,-46.46 108.16,-46.46 48.89,0 87.52,16.19 115.89,48.58 28.25,32.38 41.8,82.02 40.53,148.9l-217.8 0c0.63,25.83 7.62,45.94 21.06,60.33 13.33,14.39 30.05,21.59 49.95,21.59 13.65,0 25.08,-3.7 34.29,-11.11 9.31,-7.41 16.3,-19.37 21.06,-35.88zm5.08 -88.27c-0.63,-25.29 -7.09,-44.55 -19.47,-57.67 -12.39,-13.23 -27.41,-19.8 -45.19,-19.8 -18.95,0 -34.61,6.99 -46.99,20.85 -12.39,13.87 -18.42,32.81 -18.21,56.62l129.86 0z"/>
  <path id="3" class="fil0" d="M12844.15 6470.2l87.63 -13.34c3.7,16.83 11.21,29.64 22.64,38.32 11.33,8.78 27.31,13.12 47.73,13.12 22.55,0 39.48,-4.13 50.91,-12.38 7.62,-5.82 11.43,-13.66 11.43,-23.39 0,-6.56 -2.12,-12.07 -6.24,-16.41 -4.34,-4.12 -14.08,-8.04 -29.11,-11.53 -70.38,-15.56 -114.93,-29.74 -133.77,-42.55 -26.14,-17.88 -39.16,-42.65 -39.16,-74.29 0,-28.68 11.32,-52.71 33.87,-72.18 22.54,-19.47 57.46,-29.21 104.77,-29.21 45.09,0 78.64,7.41 100.54,22.12 21.91,14.82 37.05,36.62 45.3,65.51l-81.91 15.24c-3.5,-12.91 -10.27,-22.86 -20.11,-29.74 -9.85,-6.88 -23.92,-10.27 -42.23,-10.27 -23.07,0 -39.58,3.18 -49.64,9.64 -6.66,4.55 -9.94,10.47 -9.94,17.67 0,6.24 2.85,11.54 8.67,15.87 7.94,5.83 35.14,13.97 81.71,24.56 46.56,10.58 79.05,23.49 97.47,38.84 18.31,15.45 27.41,37.15 27.41,64.87 0,30.17 -12.59,56.2 -37.89,77.9 -25.19,21.69 -62.55,32.6 -112.08,32.6 -44.87,0 -80.43,-9.11 -106.68,-27.2 -26.14,-18.1 -43.28,-42.66 -51.32,-73.77z"/>
  <polygon class="fil1" points="18869.76,3468.23 18869.76,1399.19 18569.9,1399.19 18569.9,3468.23 "/>
  <path id="1" class="fil1" d="M20441.03 3468.23l0 -989.54c0,-248.89 -98.95,-470.78 -383.82,-470.78 -224.9,0 -371.83,134.93 -452.79,338.84l-6 0 0 -305.86 -269.87 0 0 1427.34 269.87 0 0 -605.72c0,-209.9 113.95,-584.73 377.83,-584.73 152.93,0 182.91,101.95 191.91,233.89 3,59.98 3,119.95 3,176.92l0 779.64 269.87 0z"/>
  <path id="2" class="fil1" d="M20773.88 3444.24c128.94,35.98 251.88,56.97 383.82,56.97 287.87,0 536.75,-104.95 536.75,-431.8 0,-431.79 -650.7,-464.78 -650.7,-698.67 0,-107.95 146.94,-152.93 233.9,-152.93 116.94,0 221.89,35.98 326.84,83.96l0 -242.89c-110.95,-23.99 -206.9,-50.97 -323.85,-50.97 -251.88,0 -506.76,113.94 -506.76,398.81 0,407.81 650.7,461.79 650.7,701.68 0,152.93 -170.92,182.91 -290.87,182.91 -107.95,0 -257.88,-35.98 -359.83,-83.96l0 236.89z"/>
  <path id="3" class="fil1" d="M22752.97 3270.32c-44.98,14.99 -95.96,20.99 -143.94,20.99 -188.91,0 -227.89,-119.94 -227.89,-278.87l0 -761.65 395.81 0 0 -209.9 -395.81 0 0 -503.76 -269.88 167.92 0 335.84 -254.88 0 0 209.9 254.88 0 0 902.59c0,272.87 176.92,347.83 428.8,347.83 71.97,0 143.94,-5.99 212.91,-20.99l0 -209.9z"/>
  <path id="4" class="fil1" d="M23376.68 1705.05l0 -305.86 -323.85 0 0 305.86 323.85 0zm-26.99 1763.18l0 -1427.34 -269.88 0 0 1427.34 269.88 0z"/>
  <path id="5" class="fil1" d="M24585.12 3270.32c-44.98,14.99 -95.96,20.99 -143.94,20.99 -188.91,0 -227.89,-119.94 -227.89,-278.87l0 -761.65 395.81 0 0 -209.9 -395.81 0 0 -503.76 -269.88 167.92 0 335.84 -254.88 0 0 209.9 254.88 0 0 902.59c0,272.87 176.92,347.83 428.8,347.83 71.97,0 143.94,-5.99 212.91,-20.99l0 -209.9z"/>
  <path id="6" class="fil1" d="M25979.47 3468.23l0 -1427.34 -269.88 0 0 605.72c0,209.9 -113.94,584.73 -377.82,584.73 -152.93,0 -182.92,-98.95 -191.91,-233.89 -3,-59.97 -3,-116.95 -3,-176.92l0 -779.64 -269.88 0 0 989.54c0,248.89 95.96,470.78 383.83,470.78 224.89,0 380.82,-137.93 452.79,-338.84l5.99 0 0 305.86 269.88 0z"/>
  <path id="7" class="fil1" d="M27196.91 3270.32c-44.98,14.99 -95.96,20.99 -143.94,20.99 -188.91,0 -227.89,-119.94 -227.89,-278.87l0 -761.65 395.81 0 0 -209.9 -395.81 0 0 -503.76 -269.88 167.92 0 335.84 -254.88 0 0 209.9 254.88 0 0 902.59c0,272.87 176.92,347.83 428.8,347.83 71.97,0 143.94,-5.99 212.91,-20.99l0 -209.9z"/>
  <path id="8" class="fil1" d="M28762.18 3468.23l0 -1217.44 425.8 0 0 -209.9 -425.8 0 0 -146.93c0,-176.92 86.96,-317.85 278.87,-317.85 98.96,0 191.91,14.99 284.87,41.98l0 -224.9c-92.96,-20.99 -191.91,-26.99 -287.87,-26.99 -341.84,0 -545.74,152.93 -545.74,509.77l0 164.92 -257.88 0 0 209.9 257.88 0 0 1217.44 269.87 0z"/>
  <path id="9" class="fil1" d="M30534.36 3468.23l0 -1427.34 -269.88 0 0 605.72c0,209.9 -113.94,584.73 -377.82,584.73 -152.93,0 -182.92,-98.95 -191.91,-233.89 -3,-59.97 -3,-116.95 -3,-176.92l0 -779.64 -269.88 0 0 989.54c0,248.89 95.96,470.78 383.83,470.78 224.89,0 380.82,-137.93 452.79,-338.84l5.99 0 0 305.86 269.88 0zm-47.98 -1712.21l0 -329.84 -368.83 0 0 329.84 368.83 0zm-617.71 0l0 -329.84 -368.83 0 0 329.84 368.83 0z"/>
  <path id="10" class="fil1" d="M31263.02 3468.23l0 -605.72c0,-311.85 101.95,-560.74 446.79,-560.74l0 -293.86c-212.9,0 -371.82,119.94 -440.79,320.85l-6 0 0 -287.87 -269.87 0 0 1427.34 269.87 0z"/>
  <polygon id="11" class="fil1" points="3996.67,6716.17 3996.67,4647.13 3576.87,4647.13 2989.14,6341.34 2983.14,6341.34 2395.41,4647.13 1972.61,4647.13 1972.61,6716.17 2242.49,6716.17 2242.49,5000.97 2248.48,5000.97 2842.21,6716.17 3127.07,6716.17 3720.8,5000.97 3726.8,5000.97 3726.8,6716.17 "/>
  <path id="12" class="fil1" d="M5418.01 6488.28c-86.96,32.98 -173.92,50.97 -269.87,50.97 -359.84,0 -524.76,-320.85 -524.76,-641.7l827.62 0 0 -68.97c0,-326.85 -167.93,-572.73 -515.77,-572.73 -410.8,0 -581.73,287.86 -581.73,677.68 0,467.79 197.91,815.62 707.68,815.62 122.94,0 236.89,-20.99 356.83,-47.97l0 -212.9zm-782.64 -770.65c0,-26.98 9,-59.97 20.99,-86.96 47.98,-107.95 146.94,-164.92 263.88,-164.92 149.93,0 260.88,98.95 260.88,251.88l-545.75 0z"/>
  <path id="13" class="fil1" d="M6776.38 6509.27c-74.97,23.98 -146.93,29.98 -227.9,29.98 -389.82,0 -566.73,-278.87 -566.73,-638.7 0,-179.92 62.97,-434.8 290.86,-434.8 176.92,0 218.9,140.93 218.9,287.87l308.86 0c0,-323.85 -185.92,-497.77 -509.77,-497.77 -428.8,0 -608.71,299.86 -608.71,695.67 0,440.8 218.89,797.63 698.67,797.63 134.94,0 266.88,-14.99 395.82,-53.97l0 -185.91z"/>
  <path id="14" class="fil1" d="M8176.73 6716.17l0 -989.54c0,-248.89 -98.95,-470.78 -383.82,-470.78 -224.9,0 -371.83,134.93 -452.79,338.84l-6 0 0 -947.56 -269.87 0 0 2069.04 269.87 0 0 -605.72c0,-209.9 113.95,-584.73 377.83,-584.73 152.93,0 182.91,101.95 191.91,233.89 3,59.98 3,119.95 3,176.92l0 779.64 269.87 0z"/>
  <path id="15" class="fil1" d="M9577.08 6716.17l0 -1001.54c0,-305.85 -155.92,-458.78 -467.78,-458.78 -284.87,0 -533.75,110.95 -533.75,428.8l284.87 0c0,-140.94 86.96,-218.9 227.89,-218.9 119.94,0 218.9,65.97 218.9,212.9l0 218.9c-308.86,0 -779.64,65.97 -779.64,467.78 0,245.89 164.92,383.82 404.81,383.82 146.93,0 305.86,-74.96 368.83,-209.9l6 0 0 176.92 269.87 0zm-269.87 -557.74c0,167.92 -137.94,380.82 -323.85,380.82 -98.96,0 -155.93,-95.95 -155.93,-182.91 0,-203.91 257.88,-278.87 425.8,-278.87l53.98 0 0 80.96z"/>
  <path id="16" class="fil1" d="M10767.54 6518.26c-44.98,14.99 -95.96,20.99 -143.94,20.99 -188.91,0 -227.89,-119.94 -227.89,-278.87l0 -761.65 395.81 0 0 -209.9 -395.81 0 0 -503.76 -269.88 167.92 0 335.84 -254.88 0 0 209.9 254.88 0 0 902.59c0,272.87 176.92,347.83 428.8,347.83 71.97,0 143.94,-5.99 212.91,-20.99l0 -209.9z"/>
  <path id="17" class="fil1" d="M11334.27 6716.17l0 -605.72c0,-311.85 101.95,-560.74 446.79,-560.74l0 -293.86c-212.9,0 -371.82,119.94 -440.79,320.85l-6 0 0 -287.87 -269.87 0 0 1427.34 269.87 0z"/>
  <path id="18" class="fil1" d="M12593.69 6749.15c455.79,0 629.71,-329.84 629.71,-746.65 0,-416.81 -173.92,-746.65 -629.71,-746.65 -458.79,0 -632.71,329.84 -632.71,746.65 0,419.81 173.92,746.65 632.71,746.65zm0 -209.9c-296.86,0 -332.84,-308.85 -332.84,-536.75 0,-230.89 35.98,-536.75 332.84,-536.75 296.86,0 329.85,311.86 329.85,536.75 0,224.9 -35.99,536.75 -329.85,536.75z"/>
  <path id="19" class="fil1" d="M14674.72 6716.17l0 -989.54c0,-248.89 -98.95,-470.78 -383.82,-470.78 -224.9,0 -371.83,134.93 -452.79,338.84l-6 0 0 -305.86 -269.87 0 0 1427.34 269.87 0 0 -605.72c0,-209.9 113.95,-584.73 377.83,-584.73 152.93,0 182.91,101.95 191.91,233.89 3,59.98 3,119.95 3,176.92l0 779.64 269.87 0z"/>
  <path id="20" class="fil1" d="M15445.37 4952.99l0 -305.86 -323.85 0 0 305.86 323.85 0zm-26.99 1763.18l0 -1427.34 -269.88 0 0 1427.34 269.88 0z"/>
  <path id="21" class="fil1" d="M15784.21 6692.18c128.94,35.98 251.88,56.97 383.82,56.97 287.87,0 536.75,-104.95 536.75,-431.8 0,-431.79 -650.7,-464.78 -650.7,-698.67 0,-107.95 146.94,-152.93 233.9,-152.93 116.94,0 221.89,35.98 326.84,83.96l0 -242.89c-110.95,-23.99 -206.9,-50.97 -323.85,-50.97 -251.88,0 -506.76,113.94 -506.76,398.81 0,407.81 650.7,461.79 650.7,701.68 0,152.93 -170.92,182.91 -290.87,182.91 -107.95,0 -257.88,-35.98 -359.83,-83.96l0 236.89z"/>
  <path id="22" class="fil1" d="M17994.19 6509.27c-74.97,23.98 -146.93,29.98 -227.9,29.98 -389.82,0 -566.73,-278.87 -566.73,-638.7 0,-179.92 62.97,-434.8 290.86,-434.8 176.92,0 218.9,140.93 218.9,287.87l308.86 0c0,-323.85 -185.92,-497.77 -509.77,-497.77 -428.8,0 -608.71,299.86 -608.71,695.67 0,440.8 218.89,797.63 698.67,797.63 134.94,0 266.88,-14.99 395.82,-53.97l0 -185.91z"/>
  <path id="23" class="fil1" d="M19394.54 6716.17l0 -989.54c0,-248.89 -98.95,-470.78 -383.82,-470.78 -224.9,0 -371.83,134.93 -452.79,338.84l-6 0 0 -947.56 -269.87 0 0 2069.04 269.87 0 0 -605.72c0,-209.9 113.95,-584.73 377.83,-584.73 152.93,0 182.91,101.95 191.91,233.89 3,59.98 3,119.95 3,176.92l0 779.64 269.87 0z"/>
  <path id="24" class="fil1" d="M20800.89 6488.28c-86.96,32.98 -173.92,50.97 -269.87,50.97 -359.84,0 -524.76,-320.85 -524.76,-641.7l827.62 0 0 -68.97c0,-326.85 -167.93,-572.73 -515.77,-572.73 -410.8,0 -581.73,287.86 -581.73,677.68 0,467.79 197.91,815.62 707.68,815.62 122.94,0 236.89,-20.99 356.83,-47.97l0 -212.9zm-782.64 -770.65c0,-26.98 9,-59.97 20.99,-86.96 47.98,-107.95 146.94,-164.92 263.88,-164.92 149.93,0 260.88,98.95 260.88,251.88l-545.75 0z"/>
  <path id="25" class="fil1" d="M21988.34 6668.19c164.92,56.98 353.84,80.96 524.76,80.96 377.82,0 746.65,-155.92 746.65,-587.72 0,-308.86 -194.91,-434.8 -434.8,-569.74l-203.9 -119.94c-122.95,-71.97 -335.85,-182.92 -335.85,-347.84 0,-194.91 170.92,-269.88 341.84,-269.88 167.93,0 326.85,50.98 485.78,101.96l0 -281.87c-152.93,-38.99 -314.86,-59.98 -470.78,-59.98 -344.84,0 -686.69,134.94 -686.69,533.76 0,299.86 218.9,416.8 449.8,545.74l188.91 110.95c158.92,95.96 335.84,182.92 335.84,398.82 0,224.89 -200.9,305.86 -392.82,305.86 -191.91,0 -383.82,-56.98 -548.74,-152.93l0 311.85z"/>
  <polygon id="26" class="fil1" points="23949.43,7330.89 24660.1,5288.83 24360.23,5288.83 24024.39,6320.35 24018.39,6320.35 23643.57,5288.83 23343.71,5288.83 23886.45,6725.17 23685.55,7330.89 "/>
  <path id="27" class="fil1" d="M24777.04 6692.18c128.94,35.98 251.88,56.97 383.82,56.97 287.87,0 536.75,-104.95 536.75,-431.8 0,-431.79 -650.7,-464.78 -650.7,-698.67 0,-107.95 146.94,-152.93 233.9,-152.93 116.94,0 221.89,35.98 326.84,83.96l0 -242.89c-110.95,-23.99 -206.9,-50.97 -323.85,-50.97 -251.88,0 -506.76,113.94 -506.76,398.81 0,407.81 650.7,461.79 650.7,701.68 0,152.93 -170.92,182.91 -290.87,182.91 -107.95,0 -257.88,-35.98 -359.83,-83.96l0 236.89z"/>
  <path id="28" class="fil1" d="M26756.13 6518.26c-44.98,14.99 -95.96,20.99 -143.94,20.99 -188.91,0 -227.89,-119.94 -227.89,-278.87l0 -761.65 395.81 0 0 -209.9 -395.81 0 0 -503.76 -269.88 167.92 0 335.84 -254.88 0 0 209.9 254.88 0 0 902.59c0,272.87 176.92,347.83 428.8,347.83 71.97,0 143.94,-5.99 212.91,-20.99l0 -209.9z"/>
  <path id="29" class="fil1" d="M28015.54 6488.28c-86.96,32.98 -173.92,50.97 -269.87,50.97 -359.84,0 -524.76,-320.85 -524.76,-641.7l827.62 0 0 -68.97c0,-326.85 -167.93,-572.73 -515.77,-572.73 -410.8,0 -581.73,287.86 -581.73,677.68 0,467.79 197.91,815.62 707.68,815.62 122.94,0 236.89,-20.99 356.83,-47.97l0 -212.9zm-782.64 -770.65c0,-26.98 9,-59.97 20.99,-86.96 47.98,-107.95 146.94,-164.92 263.88,-164.92 149.93,0 260.88,98.95 260.88,251.88l-545.75 0z"/>
  <path id="30" class="fil1" d="M30222.51 6716.17l0 -989.54c0,-248.89 -98.95,-470.78 -386.82,-470.78 -194.91,0 -332.84,125.94 -404.81,302.86l-6 0c-26.98,-194.91 -167.92,-302.86 -362.83,-302.86 -206.9,0 -335.84,137.93 -398.81,317.85l-6 0 0 -284.87 -269.87 0 0 1427.34 269.87 0 0 -605.72c0,-176.92 86.96,-584.73 323.85,-584.73 161.93,0 176.92,113.95 185.91,245.89 3,56.97 3,113.95 3,164.92l0 779.64 269.88 0 0 -683.68c0,-161.93 104.95,-506.77 314.85,-506.77 164.93,0 185.92,107.95 194.91,245.89 3,56.97 3,113.95 3,164.92l0 779.64 269.87 0z"/>
  <path id="31" class="fil1" d="M31622.86 6488.28c-86.96,32.98 -173.92,50.97 -269.87,50.97 -359.84,0 -524.76,-320.85 -524.76,-641.7l827.62 0 0 -68.97c0,-326.85 -167.93,-572.73 -515.77,-572.73 -410.8,0 -581.73,287.86 -581.73,677.68 0,467.79 197.91,815.62 707.68,815.62 122.94,0 236.89,-20.99 356.83,-47.97l0 -212.9zm-782.64 -770.65c0,-26.98 9,-59.97 20.99,-86.96 47.98,-107.95 146.94,-164.92 263.88,-164.92 149.93,0 260.88,98.95 260.88,251.88l-545.75 0z"/>
  <polygon id="32" class="fil1" points="12014.18,8921.06 12014.18,8779.95 11546.75,8779.95 11546.75,7703.98 11370.36,7703.98 11370.36,8921.06 "/>
  <path id="33" class="fil1" d="M12709.16 8787c-51.16,19.41 -102.31,29.99 -158.75,29.99 -211.67,0 -308.68,-188.74 -308.68,-377.47l486.83 0 0 -40.57c0,-192.27 -98.78,-336.9 -303.39,-336.9 -241.65,0 -342.19,169.33 -342.19,398.63 0,275.17 116.41,479.78 416.27,479.78 72.32,0 139.35,-12.34 209.91,-28.22l0 -125.24zm-460.38 -453.32c0,-15.87 5.29,-35.27 12.35,-51.15 28.22,-63.5 86.43,-97.01 155.22,-97.01 88.2,0 153.46,58.21 153.46,148.16l-321.03 0z"/>
  <path id="34" class="fil1" d="M13118.38 7883.89l0 -179.91 -190.5 0 0 179.91 190.5 0zm-15.87 1037.17l0 -839.61 -158.75 0 0 839.61 158.75 0z"/>
  <path id="35" class="fil1" d="M13365.33 8573.57c0,218.73 84.67,366.89 326.32,366.89 261.05,0 340.43,-197.55 340.43,-430.39 0,-192.26 -40.57,-448.02 -285.75,-448.02 -93.49,0 -179.92,47.62 -218.72,134.05l-3.53 0 0 -492.12 -158.75 0 0 869.59zm317.5 243.42c-162.28,0 -158.75,-202.85 -158.75,-317.5 0,-104.07 44.1,-313.97 178.15,-313.97 139.35,0 153.46,220.48 153.46,319.26 0,114.65 -17.64,312.21 -172.86,312.21z"/>
  <path id="36" class="fil1" d="M14885.8 8921.06l0 -582.08c0,-146.41 -58.21,-276.93 -225.78,-276.93 -132.29,0 -218.72,79.37 -266.34,199.32l-3.53 0 0 -179.92 -158.75 0 0 839.61 158.75 0 0 -356.31c0,-123.47 67.03,-343.95 222.25,-343.95 89.96,0 107.6,59.97 112.89,137.58 1.76,35.28 1.76,70.55 1.76,104.07l0 458.61 158.75 0z"/>
  <path id="37" class="fil1" d="M15339.12 7883.89l0 -179.91 -190.5 0 0 179.91 190.5 0zm-15.87 1037.17l0 -839.61 -158.75 0 0 839.61 158.75 0z"/>
  <polygon id="38" class="fil1" points="16122.29,8921.06 16122.29,8797.59 15698.96,8797.59 16106.42,8201.39 16106.42,8081.45 15533.15,8081.45 15533.15,8204.92 15914.15,8204.92 15506.69,8797.59 15506.69,8921.06 "/>
  <path id="39" class="fil1" d="M17457.55 8527.71c0,169.34 -49.39,271.64 -239.89,271.64 -185.21,0 -232.83,-107.6 -232.83,-271.64l0 -823.73 -176.39 0 0 857.25c0,255.76 165.81,379.23 410.99,379.23 243.41,0 414.51,-123.47 414.51,-379.23l0 -857.25 -176.39 0 0 823.73z"/>
  <path id="40" class="fil1" d="M18544.11 8921.06l0 -582.08c0,-146.41 -58.21,-276.93 -225.78,-276.93 -132.29,0 -218.72,79.37 -266.34,199.32l-3.53 0 0 -179.92 -158.75 0 0 839.61 158.75 0 0 -356.31c0,-123.47 67.03,-343.95 222.25,-343.95 89.96,0 107.6,59.97 112.89,137.58 1.76,35.28 1.76,70.55 1.76,104.07l0 458.61 158.75 0z"/>
  <path id="41" class="fil1" d="M18997.43 7883.89l0 -179.91 -190.5 0 0 179.91 190.5 0zm-15.87 1037.17l0 -839.61 -158.75 0 0 839.61 158.75 0z"/>
  <polygon id="42" class="fil1" points="19618.32,8921.06 19909.37,8081.45 19732.98,8081.45 19537.18,8691.75 19533.66,8691.75 19314.93,8081.45 19138.55,8081.45 19456.05,8921.06 "/>
  <path id="43" class="fil1" d="M20611.4 8787c-51.16,19.41 -102.31,29.99 -158.75,29.99 -211.67,0 -308.68,-188.74 -308.68,-377.47l486.83 0 0 -40.57c0,-192.27 -98.78,-336.9 -303.39,-336.9 -241.65,0 -342.19,169.33 -342.19,398.63 0,275.17 116.41,479.78 416.27,479.78 72.32,0 139.35,-12.34 209.91,-28.22l0 -125.24zm-460.38 -453.32c0,-15.87 5.29,-35.27 12.35,-51.15 28.22,-63.5 86.43,-97.01 155.22,-97.01 88.2,0 153.46,58.21 153.46,148.16l-321.03 0z"/>
  <path id="44" class="fil1" d="M20987.11 8921.06l0 -356.31c0,-183.44 59.97,-329.84 262.82,-329.84l0 -172.86c-125.24,0 -218.72,70.55 -259.29,188.73l-3.53 0 0 -169.33 -158.75 0 0 839.61 158.75 0z"/>
  <path id="45" class="fil1" d="M21350.47 8906.95c75.85,21.17 148.17,33.51 225.78,33.51 169.34,0 315.74,-61.73 315.74,-254 0,-254 -382.77,-273.4 -382.77,-410.98 0,-63.5 86.43,-89.96 137.59,-89.96 68.79,0 130.53,21.16 192.26,49.39l0 -142.88c-65.26,-14.11 -121.71,-29.98 -190.5,-29.98 -148.17,0 -298.1,67.02 -298.1,234.59 0,239.89 382.77,271.64 382.77,412.75 0,89.96 -100.54,107.6 -171.1,107.6 -63.5,0 -151.69,-21.17 -211.67,-49.39l0 139.35z"/>
  <path id="46" class="fil1" d="M22260.64 7883.89l0 -179.91 -190.5 0 0 179.91 190.5 0zm-15.87 1037.17l0 -839.61 -158.75 0 0 839.61 158.75 0z"/>
  <path id="47" class="fil1" d="M22971.49 8804.64c-26.46,8.82 -56.44,12.35 -84.66,12.35 -111.13,0 -134.06,-70.56 -134.06,-164.04l0 -448.03 232.83 0 0 -123.47 -232.83 0 0 -296.34 -158.75 98.78 0 197.56 -149.93 0 0 123.47 149.93 0 0 530.93c0,160.52 104.07,204.61 252.24,204.61 42.33,0 84.66,-3.52 125.23,-12.34l0 -123.48z"/>
  <path id="48" class="fil1" d="M23708.8 8921.06l0 -589.14c0,-179.92 -91.72,-269.87 -275.17,-269.87 -167.57,0 -313.97,65.26 -313.97,252.23l167.57 0c0,-82.9 51.15,-128.76 134.05,-128.76 70.56,0 128.77,38.8 128.77,125.23l0 128.77c-181.68,0 -458.61,38.8 -458.61,275.16 0,144.64 97.01,225.78 238.12,225.78 86.43,0 179.92,-44.09 216.96,-123.47l3.53 0 0 104.07 158.75 0zm-158.75 -328.08c0,98.77 -81.14,224.01 -190.5,224.01 -58.21,0 -91.72,-56.44 -91.72,-107.6 0,-119.94 151.69,-164.04 250.47,-164.04l31.75 0 0 47.63zm164.04 -679.1l0 -194.03 -216.96 0 0 194.03 216.96 0zm-363.36 0l0 -194.03 -216.96 0 0 194.03 216.96 0z"/>
  <path id="49" class="fil1" d="M24409.06 8804.64c-26.46,8.82 -56.44,12.35 -84.66,12.35 -111.13,0 -134.06,-70.56 -134.06,-164.04l0 -448.03 232.83 0 0 -123.47 -232.83 0 0 -296.34 -158.75 98.78 0 197.56 -149.93 0 0 123.47 149.93 0 0 530.93c0,160.52 104.07,204.61 252.24,204.61 42.33,0 84.66,-3.52 125.23,-12.34l0 -123.48z"/>
  <polygon id="50" class="fil1" points="25947.17,8921.06 25947.17,7703.98 25770.78,7703.98 25770.78,8217.27 25292.77,8217.27 25292.77,7703.98 25116.38,7703.98 25116.38,8921.06 25292.77,8921.06 25292.77,8358.38 25770.78,8358.38 25770.78,8921.06 "/>
  <path id="51" class="fil1" d="M26779.73 8921.06l0 -589.14c0,-179.92 -91.72,-269.87 -275.17,-269.87 -167.57,0 -313.97,65.26 -313.97,252.23l167.57 0c0,-82.9 51.15,-128.76 134.05,-128.76 70.56,0 128.77,38.8 128.77,125.23l0 128.77c-181.68,0 -458.61,38.8 -458.61,275.16 0,144.64 97.01,225.78 238.12,225.78 86.43,0 179.92,-44.09 216.96,-123.47l3.53 0 0 104.07 158.75 0zm-158.75 -328.08c0,98.77 -81.14,224.01 -190.5,224.01 -58.21,0 -91.72,-56.44 -91.72,-107.6 0,-119.94 151.69,-164.04 250.47,-164.04l31.75 0 0 47.63z"/>
  <path id="52" class="fil1" d="M27688.13 8921.06l0 -582.08c0,-146.41 -58.21,-276.93 -225.78,-276.93 -132.29,0 -218.72,79.37 -266.34,199.32l-3.53 0 0 -179.92 -158.75 0 0 839.61 158.75 0 0 -356.31c0,-123.47 67.03,-343.95 222.25,-343.95 89.96,0 107.6,59.97 112.89,137.58 1.76,35.28 1.76,70.55 1.76,104.07l0 458.61 158.75 0z"/>
  <path id="53" class="fil1" d="M28603.59 8921.06l0 -582.08c0,-146.41 -58.21,-276.93 -225.78,-276.93 -132.29,0 -218.72,79.37 -266.34,199.32l-3.53 0 0 -179.92 -158.75 0 0 839.61 158.75 0 0 -356.31c0,-123.47 67.03,-343.95 222.25,-343.95 89.96,0 107.6,59.97 112.89,137.58 1.76,35.28 1.76,70.55 1.76,104.07l0 458.61 158.75 0z"/>
  <path id="54" class="fil1" d="M29176.86 8940.46c268.11,0 370.41,-194.03 370.41,-439.21 0,-245.18 -102.3,-439.2 -370.41,-439.2 -269.88,0 -372.18,194.02 -372.18,439.2 0,246.95 102.3,439.21 372.18,439.21zm0 -123.47c-174.63,0 -195.8,-181.68 -195.8,-315.74 0,-135.82 21.17,-315.73 195.8,-315.73 174.62,0 194.02,183.44 194.02,315.73 0,132.3 -21.16,315.74 -194.02,315.74z"/>
  <polygon id="55" class="fil1" points="30102.9,8921.06 30393.95,8081.45 30217.56,8081.45 30021.76,8691.75 30018.24,8691.75 29799.51,8081.45 29623.13,8081.45 29940.63,8921.06 "/>
  <path id="56" class="fil1" d="M31095.98 8787c-51.16,19.41 -102.31,29.99 -158.75,29.99 -211.67,0 -308.68,-188.74 -308.68,-377.47l486.83 0 0 -40.57c0,-192.27 -98.78,-336.9 -303.39,-336.9 -241.65,0 -342.19,169.33 -342.19,398.63 0,275.17 116.41,479.78 416.27,479.78 72.32,0 139.35,-12.34 209.91,-28.22l0 -125.24zm-460.38 -453.32c0,-15.87 5.29,-35.27 12.35,-51.15 28.22,-63.5 86.43,-97.01 155.22,-97.01 88.2,0 153.46,58.21 153.46,148.16l-321.03 0z"/>
  <path id="57" class="fil1" d="M31471.69 8921.06l0 -356.31c0,-183.44 59.97,-329.84 262.82,-329.84l0 -172.86c-125.24,0 -218.72,70.55 -259.29,188.73l-3.53 0 0 -169.33 -158.75 0 0 839.61 158.75 0z"/>
  <g id="_2225858422288">
   <polygon class="fil2" points="32639.2,760.18 37639.2,760.18 37639.2,4260.18 36139.2,4260.18 36139.2,5760.18 32639.2,5760.18 "/>
   <path class="fil3" d="M37639.2 4260.18l3500.02 0 0 5000 -5000.02 0 0 -3500 1500 0 0 -1500zm112.9 4680.28l0 -839.45 195.46 0 0 839.45 -195.46 0zm0 -1023.15l0 -193.7 195.46 0 0 193.7 -195.46 0zm447.06 1023.15l0 -839.45 196.34 0 0 129.03 3.53 0c42.33,-98.76 115.81,-148.13 220.44,-148.13 116.99,0 187.23,55.55 210.75,166.94l4.41 0c15.57,-40.56 41.15,-76.42 76.71,-107.57 46.44,-39.68 99.64,-59.37 159.31,-59.37 65.84,0 119.33,22.04 160.19,66.42 44.67,48.79 67.01,118.75 67.01,209.86l0 582.27 -195.46 0 0 -479.69c0,-70.54 -1.47,-112.57 -4.41,-125.8 -10.28,-46.44 -37.62,-69.66 -81.71,-69.66 -52.32,0 -94.64,35.28 -127.27,105.82 -28.21,61.43 -42.32,130.21 -42.32,206.04l0 363.29 -195.46 0 0 -479.69c0,-70.54 -1.77,-112.57 -5.29,-125.8 -9.7,-46.44 -37.04,-69.66 -81.71,-69.66 -51.73,0 -93.77,35.28 -126.39,105.82 -28.22,61.43 -42.33,130.21 -42.33,206.04l0 363.29 -196.34 0zm1945.2 -149.9l0 136.09c-68.78,22.33 -147.26,33.5 -235.14,33.5 -135.21,0 -239.55,-42.03 -312.74,-126.09 -73.19,-84.06 -109.93,-203.4 -109.93,-357.71 0,-263.06 119.92,-394.44 360.06,-394.44 103.76,0 183.7,30.86 239.26,92.88 52.9,59.66 79.35,142.26 79.35,247.19l0 47.32 -497.02 0c0,78.18 22.92,151.66 68.78,220.44 59.96,88.47 141.96,132.56 246.31,132.56 46.73,0 100.22,-10.58 161.07,-31.74zm-470.87 -439.13l306.56 0c0,-35.56 -9.4,-66.42 -28.51,-91.99 -25.86,-34.98 -65.54,-52.62 -119.63,-52.62 -50.55,0 -90.53,17.93 -119.62,53.5 -22.64,26.74 -35.57,57.31 -38.8,91.11zm1114.27 -238.66l0 166.36c-75.25,-37.92 -137.56,-56.73 -186.94,-56.73 -32.62,0 -62.02,6.76 -87.88,20.58 -28.51,14.99 -42.91,34.09 -42.91,57.9 0,27.92 31.74,61.72 95.52,101.4 96.41,59.08 155.78,98.47 178.12,117.87 63.78,55.84 95.53,118.45 95.53,187.82 0,83.18 -29.99,146.66 -89.65,190.16 -55.55,41.45 -131.68,62.02 -228.09,62.02 -77.89,0 -151.96,-11.17 -221.91,-33.5l0 -169.6c77.89,33.8 149.02,50.56 213.39,50.56 96.41,0 144.61,-25.28 144.61,-75.84 0,-24.69 -31.16,-57.61 -93.76,-99.05 -92.88,-60.84 -151.08,-101.7 -174.01,-122.86 -62.6,-57.02 -93.76,-117.57 -93.76,-181.65 0,-77.59 27.34,-137.85 81.71,-181.35 54.67,-43.2 127.86,-64.95 219.56,-64.95 46.15,0 109.34,10.28 190.47,30.86z"/>
  </g>
 </g>
</svg>
