<?xml version="1.0" encoding="UTF-8" standalone="no"?>
<!-- Creator: CorelDRAW 2020 (64-Bit) -->

<svg
   xml:space="preserve"
   width="85.000198mm"
   height="85mm"
   version="1.1"
   shape-rendering="geometricPrecision"
   text-rendering="geometricPrecision"
   image-rendering="optimizeQuality"
   fill-rule="evenodd"
   clip-rule="evenodd"
   viewBox="0 0 8500.0198 8500"
   id="svg13"
   sodipodi:docname="LOGO_imes.svg"
   inkscape:version="1.1 (c68e22c387, 2021-05-23)"
   xmlns:inkscape="http://www.inkscape.org/namespaces/inkscape"
   xmlns:sodipodi="http://sodipodi.sourceforge.net/DTD/sodipodi-0.dtd"
   xmlns="http://www.w3.org/2000/svg"
   xmlns:svg="http://www.w3.org/2000/svg"><defs
   id="defs17" /><sodipodi:namedview
   id="namedview15"
   pagecolor="#ffffff"
   bordercolor="#666666"
   borderopacity="1.0"
   inkscape:pageshadow="2"
   inkscape:pageopacity="0.0"
   inkscape:pagecheckerboard="0"
   inkscape:document-units="mm"
   showgrid="false"
   fit-margin-top="0"
   fit-margin-left="0"
   fit-margin-right="0"
   fit-margin-bottom="0"
   inkscape:zoom="0.89958333"
   inkscape:cx="165.07642"
   inkscape:cy="170.07874"
   inkscape:window-width="1280"
   inkscape:window-height="738"
   inkscape:window-x="-6"
   inkscape:window-y="-6"
   inkscape:window-maximized="1"
   inkscape:current-layer="Ebene_x0020_1" />
 <g
   id="Ebene_x0020_1"
   inkscape:label="Ebene 1"
   inkscape:groupmode="layer"
   transform="translate(-3131.8,-2987.83)">
  <metadata
   id="CorelCorpID_0Corel-Layer" />
  <rect
   fill="#fefefe"
   x="7947.4302"
   y="9842.3203"
   width="3513.6699"
   height="1508.13"
   id="rect3" />
  <g
   id="_2295499942560">
   <polygon
   fill="#00509b"
   points="8131.8,6487.83 6631.8,6487.83 6631.8,7987.83 3131.8,7987.83 3131.8,2987.83 8131.8,2987.83 "
   id="polygon5" />
   <path
   fill="#e77b29"
   d="m 8131.8,6487.83 h 3500.02 v 5000 H 6631.8 v -3500 h 1500 z m 112.9,4680.28 v -839.45 h 195.46 v 839.45 z m 0,-1023.15 v -193.7 h 195.46 v 193.7 z m 447.06,1023.15 v -839.45 h 196.34 v 129.03 h 3.53 c 42.33,-98.76 115.81,-148.13 220.44,-148.13 116.99,0 187.23,55.55 210.75,166.94 h 4.41 c 15.57,-40.56 41.15,-76.42 76.71,-107.57 46.44,-39.68 99.64,-59.37 159.31,-59.37 65.84,0 119.33,22.04 160.19,66.42 44.67,48.79 67.01,118.75 67.01,209.86 v 582.27 h -195.46 v -479.69 c 0,-70.54 -1.47,-112.57 -4.41,-125.8 -10.28,-46.44 -37.62,-69.66 -81.71,-69.66 -52.32,0 -94.64,35.28 -127.27,105.82 -28.21,61.43 -42.32,130.21 -42.32,206.04 v 363.29 h -195.46 v -479.69 c 0,-70.54 -1.77,-112.57 -5.29,-125.8 -9.7,-46.44 -37.04,-69.66 -81.71,-69.66 -51.73,0 -93.77,35.28 -126.39,105.82 -28.22,61.43 -42.33,130.21 -42.33,206.04 v 363.29 z m 1945.2,-149.9 v 136.09 c -68.78,22.33 -147.26,33.5 -235.14,33.5 -135.21,0 -239.55,-42.03 -312.74,-126.09 -73.19,-84.06 -109.93,-203.4 -109.93,-357.71 0,-263.06 119.92,-394.44 360.06,-394.44 103.76,0 183.7,30.86 239.26,92.88 52.9,59.66 79.35,142.26 79.35,247.19 v 47.32 h -497.02 c 0,78.18 22.92,151.66 68.78,220.44 59.96,88.47 141.96,132.56 246.31,132.56 46.73,0 100.22,-10.58 161.07,-31.74 z m -470.87,-439.13 h 306.56 c 0,-35.56 -9.4,-66.42 -28.51,-91.99 -25.86,-34.98 -65.54,-52.62 -119.63,-52.62 -50.55,0 -90.53,17.93 -119.62,53.5 -22.64,26.74 -35.57,57.31 -38.8,91.11 z m 1114.27,-238.66 v 166.36 c -75.25,-37.92 -137.56,-56.73 -186.94,-56.73 -32.62,0 -62.02,6.76 -87.88,20.58 -28.51,14.99 -42.91,34.09 -42.91,57.9 0,27.92 31.74,61.72 95.52,101.4 96.41,59.08 155.78,98.47 178.12,117.87 63.78,55.84 95.53,118.45 95.53,187.82 0,83.18 -29.99,146.66 -89.65,190.16 -55.55,41.45 -131.68,62.02 -228.09,62.02 -77.89,0 -151.96,-11.17 -221.91,-33.5 v -169.6 c 77.89,33.8 149.02,50.56 213.39,50.56 96.41,0 144.61,-25.28 144.61,-75.84 0,-24.69 -31.16,-57.61 -93.76,-99.05 -92.88,-60.84 -151.08,-101.7 -174.01,-122.86 -62.6,-57.02 -93.76,-117.57 -93.76,-181.65 0,-77.59 27.34,-137.85 81.71,-181.35 54.67,-43.2 127.86,-64.95 219.56,-64.95 46.15,0 109.34,10.28 190.47,30.86 z"
   id="path7" />
  </g>
  <rect
   fill="#fefefe"
   x="6631.7998"
   y="6487.8301"
   width="1500"
   height="1500"
   id="rect10" />
 </g>
</svg>
